<?xml version="1.0" encoding="UTF-8"?>
<svg version="1.1" xmlns="http://www.w3.org/2000/svg" width="363" height="360">
<path d="M0 0 C2.32429532 -0.00135745 4.64859043 -0.00313931 6.97288513 -0.00531006 C13.24546952 -0.00984322 19.51803734 -0.00811192 25.790622 -0.00493097 C31.70787289 -0.00264485 37.6251218 -0.00439623 43.54237276 -0.00585817 C55.97451294 -0.00870045 68.40664572 -0.00544553 80.83878469 -0.0000578 C91.47748777 0.00441015 102.11617993 0.00363194 112.75488281 -0.00097656 C125.14812491 -0.00634269 137.54136054 -0.00842697 149.93460363 -0.0053643 C156.48082487 -0.00381063 163.02703861 -0.00358276 169.57325935 -0.00690079 C175.72850729 -0.00980317 181.88373474 -0.00776052 188.03898048 -0.00200653 C190.28907996 -0.00069164 192.53918117 -0.00105127 194.78927994 -0.0032692 C235.46357784 -0.03964578 235.46357784 -0.03964578 247.50756836 11.64111328 C256.03782185 21.44936503 256.97855396 33.39102274 256.92559814 45.88780212 C256.92871813 47.03197981 256.93183811 48.17615749 256.93505263 49.35500723 C256.94299466 53.16779572 256.93672371 56.98042337 256.93041992 60.79321289 C256.93203181 63.53542915 256.93662136 66.2776387 256.94104004 69.01985168 C256.94991076 75.68241993 256.94802232 82.344943 256.94221476 89.00751298 C256.93768874 94.42528079 256.93708943 99.84303597 256.93926239 105.26080513 C256.93956886 106.03337543 256.93987532 106.80594572 256.94019108 107.60192724 C256.94083056 109.17164886 256.94147899 110.74137047 256.94213626 112.31109209 C256.94783285 127.01409058 256.94129239 141.7170641 256.93053553 156.4200585 C256.9216024 169.02004174 256.92315139 181.61998812 256.93237305 194.2199707 C256.9430906 208.87061897 256.94728173 223.52124536 256.94114852 238.17189699 C256.94051146 239.73598738 256.93988272 241.30007777 256.93926239 242.86416817 C256.93895384 243.63362133 256.93864529 244.4030745 256.93832739 245.19584442 C256.93660477 250.60295436 256.93950623 256.01005035 256.9442215 261.41715813 C256.94984693 268.01264071 256.94827912 274.60807572 256.93766001 281.20355289 C256.93242529 284.5649474 256.93139622 287.92619761 256.93695831 291.28760147 C256.94244337 294.93981373 256.93554352 298.59180502 256.92559814 302.2440033 C256.93005959 303.29460637 256.93452103 304.34520944 256.93911767 305.42764896 C256.87599649 317.42238314 255.35011635 327.74109836 247.17163086 336.94189453 C246.34663086 337.66376953 245.52163086 338.38564453 244.67163086 339.12939453 C243.94975586 339.81001953 243.22788086 340.49064453 242.48413086 341.19189453 C233.44885899 347.41619293 223.91068542 348.28000996 213.25395203 348.2631073 C212.20570261 348.26537286 211.1574532 348.26763841 210.07743865 348.26997262 C206.5654492 348.27630197 203.05349844 348.27548394 199.54150391 348.2746582 C197.02323354 348.27765035 194.50496364 348.28105301 191.98669434 348.28483582 C185.85633026 348.29275619 179.72598036 348.29589022 173.59561165 348.29644819 C168.61108583 348.29692381 163.62656317 348.29898085 158.64203835 348.30214882 C144.5013318 348.31095281 130.36063283 348.3155686 116.21992352 348.31481835 C115.45802259 348.31477839 114.69612165 348.31473843 113.91113281 348.31469727 C113.14829862 348.31465638 112.38546443 348.3146155 111.59951404 348.31457338 C99.23873064 348.314167 86.87797771 348.3237354 74.51720311 348.33783563 C61.81675816 348.3522087 49.11632807 348.3591053 36.41587478 348.35824186 C29.28895742 348.35791021 22.162072 348.36064326 15.03516197 348.37141991 C8.33175441 348.38149143 1.62842545 348.38118004 -5.07498932 348.37390327 C-7.53359005 348.37285744 -9.99219498 348.37522026 -12.4507885 348.38126373 C-15.81051805 348.38898659 -19.1700148 348.38433669 -22.52973938 348.37663269 C-23.4994048 348.38177625 -24.46907022 348.38691982 -25.46811944 348.39221925 C-36.33213636 348.33728353 -46.52410457 346.13849759 -54.88305664 338.73876953 C-61.3640598 331.52208494 -64.432475 323.51624009 -64.36743164 313.90283203 C-64.36179199 312.82179199 -64.35615234 311.74075195 -64.3503418 310.62695312 C-64.33946533 309.39066162 -64.33946533 309.39066162 -64.32836914 308.12939453 C-63.23165894 308.10752075 -63.23165894 308.10752075 -62.11279297 308.08520508 C-58.78829543 308.01056543 -55.46478447 307.91395652 -52.14086914 307.81689453 C-50.99038086 307.79433594 -49.83989258 307.77177734 -48.65454102 307.74853516 C-46.98681641 307.69536133 -46.98681641 307.69536133 -45.28540039 307.64111328 C-43.75363159 307.60183716 -43.75363159 307.60183716 -42.19091797 307.56176758 C-38.9058217 307.06557095 -36.98957591 306.09494168 -34.32836914 304.12939453 C-31.31917393 298.11100411 -31.91171448 291.71265343 -32.95336914 285.25439453 C-34.05616554 282.02662592 -34.05616554 282.02662592 -36.64086914 280.47705078 C-41.9632569 278.53189847 -47.07923986 278.55873304 -52.70336914 278.44189453 C-56.53961914 278.33876953 -60.37586914 278.23564453 -64.32836914 278.12939453 C-64.32836914 264.26939453 -64.32836914 250.40939453 -64.32836914 236.12939453 C-52.14086914 235.81689453 -52.14086914 235.81689453 -48.32373047 235.74145508 C-47.32108154 235.70834229 -46.31843262 235.67522949 -45.28540039 235.64111328 C-43.75363159 235.60183716 -43.75363159 235.60183716 -42.19091797 235.56176758 C-38.9058217 235.06557095 -36.98957591 234.09494168 -34.32836914 232.12939453 C-31.31917393 226.11100411 -31.91171448 219.71265343 -32.95336914 213.25439453 C-34.05616554 210.02662592 -34.05616554 210.02662592 -36.64086914 208.47705078 C-41.9632569 206.53189847 -47.07923986 206.55873304 -52.70336914 206.44189453 C-58.45774414 206.28720703 -58.45774414 206.28720703 -64.32836914 206.12939453 C-64.32836914 191.93939453 -64.32836914 177.74939453 -64.32836914 163.12939453 C-51.64086914 162.94189453 -51.64086914 162.94189453 -47.66552734 162.92163086 C-40.93479525 162.80484354 -40.93479525 162.80484354 -35.05883789 159.82861328 C-31.17996519 153.77827234 -31.88852188 147.15945341 -32.89086914 140.25439453 C-34.48946289 136.77919072 -35.59229827 136.09703449 -39.07080078 134.73193359 C-43.7114245 133.49336332 -48.48906998 133.54567353 -53.26586914 133.44189453 C-54.3312793 133.40773437 -55.39668945 133.37357422 -56.49438477 133.33837891 C-59.1056076 133.25641227 -61.71651635 133.18709566 -64.32836914 133.12939453 C-64.35301488 127.16626287 -64.37120314 121.20316059 -64.38330078 115.23999023 C-64.38834192 113.20971155 -64.39517471 111.17943651 -64.40380859 109.14916992 C-64.41588381 106.23762107 -64.42159948 103.32612003 -64.42602539 100.41455078 C-64.43118668 99.50101334 -64.43634796 98.58747589 -64.44166565 97.64625549 C-64.44186082 95.47364026 -64.39048719 93.30112157 -64.32836914 91.12939453 C-62.60249369 89.40351908 -60.25754797 89.91831372 -57.90258789 89.84814453 C-56.79592773 89.81076172 -55.68926758 89.77337891 -54.54907227 89.73486328 C-53.38311523 89.70005859 -52.2171582 89.66525391 -51.01586914 89.62939453 C-48.72798668 89.56041315 -46.44021429 89.48765111 -44.15258789 89.41064453 C-43.13253662 89.38035156 -42.11248535 89.35005859 -41.06152344 89.31884766 C-38.67640522 89.15351923 -36.61362655 88.80327435 -34.32836914 88.12939453 C-32.12106346 80.33890391 -31.63261097 72.75891729 -34.00024414 64.89892578 C-36.09772194 62.10434506 -37.90923993 61.87525209 -41.32836914 61.12939453 C-45.28370147 60.76556825 -49.23394255 60.62171748 -53.20336914 60.50439453 C-54.27329102 60.46572266 -55.34321289 60.42705078 -56.44555664 60.38720703 C-59.07299322 60.29337001 -61.70043085 60.20767896 -64.32836914 60.12939453 C-64.42838973 55.63116097 -64.50037086 51.13354262 -64.5480957 46.63452148 C-64.56802225 45.10901594 -64.59517399 43.58358485 -64.63012695 42.05834961 C-64.8782584 30.93987155 -64.65290848 19.94814606 -56.70336914 11.25439453 C-42.50457866 -3.58254384 -18.70842604 -0.01845909 0 0 Z M110.9993124 37.27070427 C109.09059872 39.94281157 109.15608113 42.10614736 108.9912262 45.36843872 C108.92693987 46.62706852 108.86265354 47.88569832 108.79641914 49.18246841 C108.59484598 55.55802193 108.54047466 61.9264773 108.55810547 68.3046875 C108.55838842 69.76486204 108.55822751 71.22503672 108.55766296 72.68521118 C108.55737918 76.60162544 108.56320737 80.5180083 108.57023692 84.43441534 C108.57654098 88.54498982 108.57707979 92.65556523 108.57826233 96.7661438 C108.58135504 104.52886444 108.58954031 112.29157079 108.59961182 120.05428517 C108.61083738 128.90087243 108.61629956 137.74746041 108.62130725 146.59405303 C108.63172492 164.77250826 108.64928396 182.95095024 108.67163086 201.12939453 C107.6700293 200.64728516 106.66842773 200.16517578 105.63647461 199.66845703 C104.29416085 199.03015399 102.95170532 198.39214904 101.60913086 197.75439453 C100.95235352 197.43728516 100.29557617 197.12017578 99.61889648 196.79345703 C86.68310349 190.67603768 71.14490321 189.58891314 57.48413086 194.25439453 C42.25119509 200.19490761 29.92883657 210.004898 22.35522461 224.68017578 C18.40286952 233.97578444 18.12675884 244.3997901 21.23413086 254.00439453 C23.52300988 259.42839306 26.70566616 263.80826881 30.67163086 268.12939453 C31.18338867 268.69529297 31.69514648 269.26119141 32.22241211 269.84423828 C40.93070862 278.33644803 53.75381272 280.44189453 65.4050293 280.44189453 C83.79395029 280.12043544 98.92150937 272.06840671 111.67163086 259.12939453 C112.24397461 258.56736328 112.81631836 258.00533203 113.40600586 257.42626953 C124.0883859 246.08312371 125.98501122 232.50281151 125.89868164 217.62329102 C125.89811645 216.28207915 125.89843619 214.94086666 125.89956665 213.59965515 C125.90013695 209.98454571 125.88843537 206.36957088 125.87441874 202.75449252 C125.86185715 198.96687436 125.86073662 195.1792526 125.85836792 191.39161682 C125.85216903 184.23077843 125.83577989 177.07000161 125.81566894 169.90919024 C125.79326024 161.75195073 125.78230405 153.59470818 125.77227807 145.43744552 C125.75141213 128.66805923 125.71626731 111.89873476 125.67163086 95.12939453 C128.84836274 96.05412058 132.02192454 96.98931214 135.19506836 97.92626953 C136.08508545 98.18520996 136.97510254 98.44415039 137.89208984 98.7109375 C151.63503296 102.78525657 163.7917659 108.5256151 171.54663086 121.19189453 C176.00510675 129.76588664 178.06336975 137.44379456 178.04663086 147.06689453 C178.04530151 148.44590942 178.04530151 148.44590942 178.04394531 149.8527832 C177.86996729 160.03800443 175.64714083 169.28910365 171.92163086 178.75439453 C170.66652314 182.14318538 170.40328155 184.55140367 170.67163086 188.12939453 C172.32163086 188.45939453 173.97163086 188.78939453 175.67163086 189.12939453 C187.71655115 175.91762258 196.06481673 155.07148258 195.65600586 137.11376953 C194.73384214 117.52581931 189.10932203 102.05484978 174.61694336 88.57080078 C169.28684248 83.81877577 163.59360503 79.55847034 157.86694336 75.30126953 C145.6766729 66.19366074 134.77561238 56.29292165 125.78491211 43.99658203 C125.0875293 43.05041016 124.39014648 42.10423828 123.67163086 41.12939453 C122.99616211 40.19353516 122.32069336 39.25767578 121.62475586 38.29345703 C119.75105492 35.75182565 119.75105492 35.75182565 116.10913086 35.62939453 C112.81589715 35.85161141 112.81589715 35.85161141 110.9993124 37.27070427 Z " fill="#F6F4EF" transform="translate(96.328369140625,2.87060546875)"/>
<path d="M0 0 C0.98937561 0.00470306 1.97875122 0.00940613 2.99810791 0.01425171 C6.15049435 0.03556633 9.30118884 0.09219585 12.453125 0.1484375 C14.58982798 0.16494589 16.72654883 0.17929363 18.86328125 0.19140625 C22.75509825 0.22537089 26.64674818 0.25991548 30.53808594 0.33056641 C31.71126373 0.34985703 31.71126373 0.34985703 32.90814209 0.36953735 C34.703125 0.5234375 34.703125 0.5234375 35.703125 1.5234375 C35.77626067 4.05393152 35.79560027 6.55648587 35.765625 9.0859375 C35.76111328 9.79685547 35.75660156 10.50777344 35.75195312 11.24023438 C35.74013364 13.00133763 35.72219763 14.76239786 35.703125 16.5234375 C29.22529441 16.57414076 22.74751499 16.60917242 16.26953125 16.63330078 C14.06573575 16.64335933 11.8619536 16.65700776 9.65820312 16.67431641 C6.49085191 16.6985709 3.32367713 16.7099221 0.15625 16.71875 C-0.82929871 16.72907257 -1.81484741 16.73939514 -2.83026123 16.75003052 C-3.7509137 16.75018158 -4.67156616 16.75033264 -5.62011719 16.75048828 C-6.83257111 16.75715012 -6.83257111 16.75715012 -8.06951904 16.76394653 C-10.57521917 16.493382 -12.16846208 15.85902523 -14.296875 14.5234375 C-15.86623094 11.38472562 -15.64888603 8.98487928 -15.296875 5.5234375 C-11.09627783 -0.50469221 -6.74555501 -0.16005992 0 0 Z " fill="#F5F3EC" transform="translate(20.296875,68.4765625)"/>
<path d="M0 0 C0.8774588 -0.00315216 1.7549176 -0.00630432 2.65896606 -0.009552 C3.60279144 -0.00752777 4.54661682 -0.00550354 5.51904297 -0.00341797 C6.97405716 -0.00485306 6.97405716 -0.00485306 8.45846558 -0.00631714 C10.50779282 -0.00699755 12.55712222 -0.00515295 14.60644531 -0.00097656 C17.75574537 0.00438519 20.90490354 -0.00093221 24.05419922 -0.00732422 C26.04248079 -0.00666364 28.03076226 -0.0053829 30.01904297 -0.00341797 C31.44085373 -0.00645432 31.44085373 -0.00645432 32.89138794 -0.009552 C33.76254242 -0.00639984 34.6336969 -0.00324768 35.53125 0 C36.30163605 0.00079559 37.07202209 0.00159119 37.86575317 0.00241089 C39.63623047 0.12939453 39.63623047 0.12939453 40.63623047 1.12939453 C40.70936613 3.65988855 40.72870574 6.1624429 40.69873047 8.69189453 C40.69421875 9.4028125 40.68970703 10.11373047 40.68505859 10.84619141 C40.67323911 12.60729466 40.6553031 14.36835489 40.63623047 16.12939453 C34.15844237 16.20544893 27.68076939 16.25799607 21.20263672 16.29418945 C18.99881691 16.30927744 16.79502712 16.32975029 14.59130859 16.35571289 C11.4239155 16.39209511 8.25691936 16.40912085 5.08935547 16.42236328 C3.61103241 16.44558907 3.61103241 16.44558907 2.10284424 16.46928406 C1.18219177 16.46951065 0.26153931 16.46973724 -0.68701172 16.4699707 C-1.89946564 16.47996346 -1.89946564 16.47996346 -3.13641357 16.49015808 C-5.92814951 16.03798223 -7.30772813 15.03976564 -9.36376953 13.12939453 C-9.82470703 10.97314453 -9.82470703 10.97314453 -9.73876953 8.62939453 C-9.72587891 7.85595703 -9.71298828 7.08251953 -9.69970703 6.28564453 C-9.36376953 4.12939453 -9.36376953 4.12939453 -7.36376953 1.12939453 C-4.57024223 0.19821876 -2.88588028 0.00297416 0 0 Z " fill="#F6F3ED" transform="translate(15.36376953125,286.87060546875)"/>
<path d="M0 0 C1.45076935 0.0070546 1.45076935 0.0070546 2.93084717 0.01425171 C6.01192084 0.03556293 9.09126219 0.09219036 12.171875 0.1484375 C14.26040053 0.1649463 16.34894434 0.17929394 18.4375 0.19140625 C22.24143147 0.22536786 26.04519173 0.25991247 29.84863281 0.33056641 C30.99516327 0.34985703 30.99516327 0.34985703 32.16485596 0.36953735 C33.921875 0.5234375 33.921875 0.5234375 34.921875 1.5234375 C34.99501067 4.05393152 35.01435027 6.55648587 34.984375 9.0859375 C34.97986328 9.79685547 34.97535156 10.50777344 34.97070312 11.24023438 C34.95888364 13.00133763 34.94094763 14.76239786 34.921875 16.5234375 C28.4441464 16.62484243 21.96662239 16.69490467 15.48828125 16.74316406 C13.2844274 16.76328169 11.08062693 16.79057922 8.87695312 16.82519531 C5.70950144 16.87370583 2.54275532 16.89640486 -0.625 16.9140625 C-2.10332306 16.94503021 -2.10332306 16.94503021 -3.61151123 16.97662354 C-10.41920368 16.97885757 -10.41920368 16.97885757 -13.69628906 14.71386719 C-15.76508482 11.43449696 -15.67720425 9.31760608 -15.078125 5.5234375 C-10.8667176 -0.42239627 -6.71036577 -0.16295589 0 0 Z " fill="#F6F5EE" transform="translate(21.078125,215.4765625)"/>
<path d="M0 0 C1.28615707 -0.00472824 1.28615707 -0.00472824 2.59829712 -0.009552 C3.98122452 -0.00651566 3.98122452 -0.00651566 5.39208984 -0.00341797 C6.33990326 -0.00437469 7.28771667 -0.00533142 8.26425171 -0.00631714 C10.26650051 -0.0069975 12.26875153 -0.00515326 14.27099609 -0.00097656 C17.3478689 0.00438554 20.42459651 -0.00093251 23.50146484 -0.00732422 C25.4441735 -0.00666364 27.38688207 -0.00538291 29.32958984 -0.00341797 C30.2555899 -0.0054422 31.18158997 -0.00746643 32.13565063 -0.009552 C32.98678436 -0.00639984 33.83791809 -0.00324768 34.71484375 0 C35.4674649 0.00079559 36.22008606 0.00159119 36.99551392 0.00241089 C38.72802734 0.12939453 38.72802734 0.12939453 39.72802734 1.12939453 C39.80116301 3.65988855 39.82050261 6.1624429 39.79052734 8.69189453 C39.78601562 9.4028125 39.78150391 10.11373047 39.77685547 10.84619141 C39.76503598 12.60729466 39.74709998 14.36835489 39.72802734 16.12939453 C33.25029874 16.23079946 26.77277473 16.3008617 20.29443359 16.34912109 C18.09057974 16.36923872 15.88677928 16.39653625 13.68310547 16.43115234 C10.51565378 16.47966287 7.34890767 16.50236189 4.18115234 16.52001953 C2.70282928 16.55098724 2.70282928 16.55098724 1.19464111 16.58258057 C-5.64248216 16.58482426 -5.64248216 16.58482426 -8.89428711 14.23217773 C-11.24096547 10.65040549 -10.74083868 8.34918875 -10.27197266 4.12939453 C-7.73097415 0.37839673 -4.29102857 0.00452646 0 0 Z " fill="#F5F3ED" transform="translate(16.27197265625,142.87060546875)"/>
<path d="M0 0 C8.16243418 9.00682392 8.15054604 19.85837665 8.13371277 31.39764404 C8.13597833 32.53925845 8.13824388 33.68087286 8.14057809 34.85708165 C8.14690381 38.67914548 8.14608964 42.50117371 8.14526367 46.32324219 C8.14771307 49.06501398 8.15163055 51.80678328 8.15544128 54.54855347 C8.16373613 61.22154626 8.1664956 67.89453022 8.16705366 74.56752774 C8.1675294 79.99394606 8.16958705 85.42036147 8.17275429 90.84677887 C8.1815579 106.24420897 8.18617416 121.6416321 8.18542381 137.03906474 C8.18538386 137.86857572 8.1853439 138.6980867 8.18530273 139.55273438 C8.18526185 140.38326259 8.18522097 141.2137908 8.18517885 142.06948653 C8.18477253 155.5249304 8.19433941 168.98034627 8.2084411 182.43578205 C8.2228187 196.26402051 8.22971051 210.09224533 8.22884732 223.92049146 C8.22851582 231.67902894 8.23124247 239.43753707 8.24202538 247.19606781 C8.25114863 253.80259782 8.25329069 260.40908517 8.24651595 267.01561877 C8.24325984 270.38307169 8.24425643 273.75037634 8.2518692 277.11783218 C8.25960374 280.77676779 8.25493441 284.43549026 8.24723816 288.09442139 C8.25238172 289.14707082 8.25752529 290.19972024 8.26282471 291.28426814 C8.20833789 303.04862972 6.81313111 313.55842228 -1.3125 322.5625 C-1.869375 323.036875 -2.42625 323.51125 -3 324 C-3.33 322.02 -3.66 320.04 -4 318 C-1 316 -1 316 1 316 C4.67856501 308.45684622 5.57758528 302.0803911 5.51898193 293.74996948 C5.52648319 292.5531115 5.53398444 291.35625351 5.541713 290.1231271 C5.55841037 286.82767732 5.55745466 283.53279638 5.54880548 280.23733377 C5.54383796 276.67369224 5.56197353 273.11015653 5.57722473 269.54655457 C5.60048522 263.38123983 5.60928757 257.21604254 5.60811615 251.05068588 C5.60644364 242.13677476 5.62681487 233.22301975 5.65247145 224.30915035 C5.69350861 209.84510524 5.71685422 195.3810883 5.72900391 180.91699219 C5.74084038 166.87106622 5.76105252 152.82519326 5.79248047 138.77929688 C5.79441657 137.9127084 5.79635267 137.04611992 5.79834744 136.15327118 C5.80811234 131.80561247 5.81804139 127.45795416 5.82805204 123.11029601 C5.91081587 87.07355532 5.96483836 51.03681701 6 15 C3.525 14.01 3.525 14.01 1 13 C1.01160156 12.39671875 1.02320313 11.7934375 1.03515625 11.171875 C1.04417969 10.37265625 1.05320312 9.5734375 1.0625 8.75 C1.07410156 7.96109375 1.08570313 7.1721875 1.09765625 6.359375 C1.00385306 4.09308998 0.63241063 2.1711105 0 0 Z " fill="#E6FEFE" transform="translate(345,17)"/>
<path d="M0 0 C0.66 0.66 1.32 1.32 2 2 C-6.84655534 10.25678498 -17.93427978 11.15320842 -29.44459534 11.12698364 C-30.49566701 11.12854363 -31.54673869 11.13010362 -32.62966102 11.13171089 C-36.15098946 11.13569896 -39.67227476 11.13253971 -43.19360352 11.12939453 C-45.7183637 11.13074953 -48.24312369 11.13253003 -50.7678833 11.13470459 C-56.91294947 11.13879309 -63.05799968 11.13819191 -69.20306606 11.13529195 C-74.19716059 11.13303278 -79.1912517 11.13272762 -84.1853466 11.13381577 C-84.89635789 11.133969 -85.60736917 11.13412223 -86.33992625 11.13428011 C-87.78435739 11.13459984 -89.22878853 11.13492405 -90.67321967 11.1352527 C-104.21382338 11.13810345 -117.75442031 11.1348267 -131.2950229 11.12945233 C-142.91340082 11.1249837 -154.53176875 11.1257615 -166.15014648 11.13037109 C-179.64413602 11.13572233 -193.13811961 11.13782981 -206.63211006 11.13475883 C-208.07089643 11.13444028 -209.50968279 11.13412591 -210.94846916 11.13381577 C-211.65637201 11.13366149 -212.36427487 11.13350721 -213.09362932 11.13334826 C-218.08221737 11.13248483 -223.07080165 11.13394223 -228.05938911 11.13629532 C-234.77261727 11.13939233 -241.48582362 11.13718812 -248.1990509 11.13140106 C-250.6657807 11.13007649 -253.13251209 11.13046246 -255.59924126 11.13266373 C-258.96031191 11.13538703 -262.32132156 11.13197952 -265.68238831 11.12698364 C-266.66370509 11.12921436 -267.64502188 11.13144509 -268.65607554 11.13374341 C-270.00830711 11.12983178 -270.00830711 11.12983178 -271.38785648 11.12584114 C-272.16341044 11.12567879 -272.93896441 11.12551644 -273.73802 11.12534916 C-276.232006 10.98714323 -278.56447331 10.54192952 -281 10 C-281 9.67 -281 9.34 -281 9 C-280.4476769 8.99902319 -279.89535381 8.99804638 -279.32629365 8.99703997 C-246.56673659 8.93872547 -213.80725536 8.86489662 -181.04778154 8.77101372 C-177.11136314 8.75974601 -173.17494438 8.74860748 -169.23852539 8.73754883 C-168.06305599 8.7342433 -168.06305599 8.7342433 -166.86383972 8.730871 C-154.1871896 8.69553096 -141.51053953 8.67064825 -128.83385845 8.64965298 C-115.81941319 8.62786467 -102.80503167 8.59478553 -89.79064065 8.55129844 C-81.76474119 8.52483386 -73.7389211 8.50710028 -65.71298019 8.50065396 C-59.55117307 8.49475977 -53.389511 8.47313099 -47.22776413 8.44572449 C-44.70552002 8.43694659 -42.18325234 8.43322116 -39.66099358 8.43499184 C-36.20955415 8.43664947 -32.75866106 8.4199026 -29.30729675 8.39872742 C-27.82037953 8.40599878 -27.82037953 8.40599878 -26.30342358 8.41341704 C-17.65311364 8.32621129 -9.27745779 6.92989076 -2 2 C-1.34 2 -0.68 2 0 2 C0 1.34 0 0.68 0 0 Z " fill="#E4FEFE" transform="translate(339,340)"/>
<path d="M0 0 C2.32429532 -0.00135745 4.64859043 -0.00313931 6.97288513 -0.00531006 C13.24546952 -0.00984322 19.51803734 -0.00811192 25.790622 -0.00493097 C31.70787289 -0.00264485 37.6251218 -0.00439623 43.54237276 -0.00585817 C55.97451294 -0.00870045 68.40664572 -0.00544553 80.83878469 -0.0000578 C91.47748777 0.00441015 102.11617993 0.00363194 112.75488281 -0.00097656 C125.14812491 -0.00634269 137.54136054 -0.00842697 149.93460363 -0.0053643 C156.48082487 -0.00381063 163.02703861 -0.00358276 169.57325935 -0.00690079 C175.72850729 -0.00980317 181.88373474 -0.00776052 188.03898048 -0.00200653 C190.28907996 -0.00069164 192.53918117 -0.00105127 194.78927994 -0.0032692 C206.13035246 -0.01341195 217.37149518 0.05213779 228.67163086 1.12939453 C228.67163086 1.45939453 228.67163086 1.78939453 228.67163086 2.12939453 C227.8388331 2.13085974 227.8388331 2.13085974 226.98921114 2.13235456 C194.07112106 2.19064824 161.15310657 2.2644614 128.23509947 2.35838081 C124.28108225 2.36964875 120.32706468 2.38078723 116.37304688 2.3918457 C115.19230462 2.39515123 115.19230462 2.39515123 113.98770898 2.39852353 C101.24827569 2.43387941 88.50884245 2.45875319 75.76937831 2.47974155 C62.69392215 2.50151722 49.61852955 2.53458442 36.54312748 2.57809609 C28.47729992 2.60458239 20.41155155 2.6223 12.34568267 2.62874057 C6.15691378 2.63462661 -0.03171016 2.6562357 -6.22041893 2.68367004 C-8.75640361 2.69246039 -11.2924118 2.6961708 -13.8284111 2.69440269 C-17.29368786 2.69274959 -20.75841608 2.70945353 -24.22361755 2.73066711 C-25.22461233 2.72581954 -26.22560711 2.72097196 -27.25693506 2.71597749 C-37.1217745 2.81548009 -47.11716353 5.71991286 -54.76586914 12.19189453 C-56.52803989 14.14610269 -56.52803989 14.14610269 -57.32836914 17.12939453 C-58.31836914 16.79939453 -59.30836914 16.46939453 -60.32836914 16.12939453 C-54.32901583 8.43748624 -48.03385069 3.20002069 -38.32836914 1.12939453 C-25.60766813 -0.26170236 -12.7759111 -0.01260564 0 0 Z " fill="#E4FEFE" transform="translate(96.328369140625,2.87060546875)"/>
<path d="M0 0 C1.32 0 2.64 0 4 0 C4 0.66 4 1.32 4 2 C4.66 2 5.32 2 6 2 C6 2.66 6 3.32 6 4 C6.99 4 7.98 4 9 4 C9 4.66 9 5.32 9 6 C9.99 6 10.98 6 12 6 C12 6.66 12 7.32 12 8 C12.66 8 13.32 8 14 8 C14 8.66 14 9.32 14 10 C14.5465625 10.25136719 15.093125 10.50273438 15.65625 10.76171875 C18.45001156 12.23775611 20.93378777 13.96891621 23.5 15.8125 C24.4384375 16.47894531 25.376875 17.14539063 26.34375 17.83203125 C29.02199646 20.01795299 30.9423305 22.23417152 33 25 C33.78375 25.99 34.5675 26.98 35.375 28 C46.34605359 43.55647847 48.45737754 62.38156836 45.27734375 80.82421875 C43.59155711 89.00912108 40.84356797 96.57522364 37 104 C36.54625 105.010625 36.0925 106.02125 35.625 107.0625 C30.35105163 116.59617591 30.35105163 116.59617591 27 120 C23.92341681 120.88209728 22.22412345 120.56563569 19 120 C17.58435166 117.16870331 17.75775505 115.14918438 18 112 C18.98357352 109.99187074 19.98308736 107.99145391 21 106 C21.25284367 103.24853726 21.25284367 103.24853726 21 101 C21.66 101 22.32 101 23 101 C24.7408044 92.96149082 25.39410448 85.2162192 25.4375 77 C25.47037109 75.90171875 25.50324219 74.8034375 25.53710938 73.671875 C25.58362824 66.53334303 24.3958716 61.53237904 20.98071289 55.2421875 C20 53 20 53 21 50 C21.79955001 51.51670364 22.58921388 53.03861998 23.375 54.5625 C24.03628906 55.83287109 24.03628906 55.83287109 24.7109375 57.12890625 C27.68943499 63.76283247 28.38746565 69.77106479 28.375 76.9375 C28.37411377 77.85684326 28.37322754 78.77618652 28.37231445 79.72338867 C28.19833643 89.9086099 25.97550997 99.15970912 22.25 108.625 C20.99489228 112.01379085 20.73165069 114.42200914 21 118 C24.14879071 117.70446504 25.60404862 117.43345339 27.7734375 115.05859375 C40.20203469 94.71813348 47.61168562 72.14453347 41.875 48.3125 C35.28795433 27.77458873 21.66197359 16.66211732 4.69482422 4.32763672 C2.99055452 2.9926009 1.49715124 1.56122497 0 0 Z " fill="#E7FDFE" transform="translate(247,73)"/>
<path d="M0 0 C0.33 0 0.66 0 1 0 C1.33 46.2 1.66 92.4 2 140 C1.34 140.33 0.68 140.66 0 141 C-2.44332726 139.92481882 -4.76754523 138.80191434 -7.125 137.5625 C-7.78371094 137.22412109 -8.44242188 136.88574219 -9.12109375 136.53710938 C-10.75106547 135.69850074 -12.37601909 134.85015189 -14 134 C-14 133.67 -14 133.34 -14 133 C-9.65859407 132.73688449 -6.14092371 133.76113708 -2 135 C-1.99576806 134.32854824 -1.99153612 133.65709648 -1.98717594 132.9652977 C-1.8839005 116.6322953 -1.77526737 100.29933824 -1.66066074 83.96641159 C-1.6053674 76.06795475 -1.55189179 68.16949339 -1.50268555 60.27099609 C-1.45979607 53.38719331 -1.41350606 46.50342326 -1.36312145 39.61967111 C-1.33655889 35.97431998 -1.3117068 32.32897518 -1.29092598 28.68358612 C-1.26767189 24.61550573 -1.23682641 20.54751706 -1.20532227 16.47949219 C-1.1995668 15.26892654 -1.19381134 14.0583609 -1.18788147 12.81111145 C-1.17809265 11.70335861 -1.16830383 10.59560577 -1.15821838 9.45428467 C-1.15176583 8.49193279 -1.14531328 7.52958092 -1.1386652 6.53806686 C-1.01170764 4.21429153 -0.65730653 2.22509029 0 0 Z " fill="#EBFBFB" transform="translate(204,64)"/>
<path d="M0 0 C2.25262618 0.47346847 4.50472321 0.94945502 6.7565918 1.42651367 C8.63788033 1.82370857 8.63788033 1.82370857 10.55717468 2.22892761 C24.89025695 5.43903645 35.05512327 12.42034391 45 23 C44.67 23.66 44.34 24.32 44 25 C43.40574219 24.34773438 42.81148438 23.69546875 42.19921875 23.0234375 C33.8367291 14.2057579 20.69306592 4.44615969 7.9337616 3.91378784 C4.9668808 3.95689392 4.9668808 3.95689392 2 4 C1.99761165 4.70237415 1.99522329 5.40474831 1.99276257 6.12840652 C1.93364675 23.21253904 1.85811874 40.29651982 1.76428509 57.38049698 C1.71930443 65.6421608 1.67989506 73.9037813 1.65356445 82.16552734 C1.63060269 89.3658104 1.59722521 96.5659566 1.55129844 103.76613116 C1.52734147 107.57918761 1.50862898 111.39210832 1.50238609 115.20523834 C1.49634631 118.79384138 1.47638714 122.38209699 1.44572449 125.97057152 C1.43272932 127.91638017 1.43451723 129.86226993 1.4367218 131.80812073 C1.42418365 132.96635849 1.41164551 134.12459625 1.39872742 135.31793213 C1.39411845 136.32453007 1.38950949 137.33112801 1.38476086 138.36822891 C0.94505992 141.37579114 0.00675851 142.76225057 -2 145 C-1.83923477 143.79356339 -1.67846954 142.58712677 -1.51283264 141.34413147 C-0.82016418 135.06649887 -0.82398053 128.8037649 -0.79467773 122.49389648 C-0.78507976 121.1526816 -0.77506861 119.81146961 -0.76467896 118.47026062 C-0.73783154 114.85522511 -0.7167139 111.2401768 -0.69667697 107.62509799 C-0.67469181 103.83744954 -0.64736489 100.04983959 -0.62062073 96.26222229 C-0.57086219 89.10143457 -0.52586146 81.94062529 -0.48259836 74.77979571 C-0.43308134 66.6225221 -0.37821722 58.46528714 -0.32291877 50.30805099 C-0.2093575 33.53873636 -0.10246297 16.76938619 0 0 Z " fill="#E6FEFE" transform="translate(222,98)"/>
<path d="M0 0 C0.8774588 -0.00315216 1.7549176 -0.00630432 2.65896606 -0.009552 C3.60279144 -0.00752777 4.54661682 -0.00550354 5.51904297 -0.00341797 C6.97405716 -0.00485306 6.97405716 -0.00485306 8.45846558 -0.00631714 C10.50779282 -0.00699755 12.55712222 -0.00515295 14.60644531 -0.00097656 C17.75574537 0.00438519 20.90490354 -0.00093221 24.05419922 -0.00732422 C26.04248079 -0.00666364 28.03076226 -0.0053829 30.01904297 -0.00341797 C31.44085373 -0.00645432 31.44085373 -0.00645432 32.89138794 -0.009552 C33.76254242 -0.00639984 34.6336969 -0.00324768 35.53125 0 C36.30163605 0.00079559 37.07202209 0.00159119 37.86575317 0.00241089 C39.63623047 0.12939453 39.63623047 0.12939453 40.63623047 1.12939453 C40.70936613 3.65988855 40.72870574 6.1624429 40.69873047 8.69189453 C40.69421875 9.4028125 40.68970703 10.11373047 40.68505859 10.84619141 C40.67323911 12.60729466 40.6553031 14.36835489 40.63623047 16.12939453 C34.15844237 16.20544893 27.68076939 16.25799607 21.20263672 16.29418945 C18.99881691 16.30927744 16.79502712 16.32975029 14.59130859 16.35571289 C11.4239155 16.39209511 8.25691936 16.40912085 5.08935547 16.42236328 C3.61103241 16.44558907 3.61103241 16.44558907 2.10284424 16.46928406 C1.18219177 16.46951065 0.26153931 16.46973724 -0.68701172 16.4699707 C-1.89946564 16.47996346 -1.89946564 16.47996346 -3.13641357 16.49015808 C-5.92814951 16.03798223 -7.30772813 15.03976564 -9.36376953 13.12939453 C-9.82470703 10.97314453 -9.82470703 10.97314453 -9.73876953 8.62939453 C-9.72587891 7.85595703 -9.71298828 7.08251953 -9.69970703 6.28564453 C-9.36376953 4.12939453 -9.36376953 4.12939453 -7.36376953 1.12939453 C-4.57024223 0.19821876 -2.88588028 0.00297416 0 0 Z M-6.36376953 2.12939453 C-8.79322113 5.77357193 -8.52556528 7.84180725 -8.36376953 12.12939453 C-7.70376953 12.12939453 -7.04376953 12.12939453 -6.36376953 12.12939453 C-6.36376953 12.78939453 -6.36376953 13.44939453 -6.36376953 14.12939453 C8.81623047 14.12939453 23.99623047 14.12939453 39.63623047 14.12939453 C39.14123047 8.18939453 39.14123047 8.18939453 38.63623047 2.12939453 C32.26418622 2.05538925 25.89239058 2.0008612 19.52001953 1.96459961 C17.35102991 1.94948753 15.18207097 1.92899718 13.01318359 1.90307617 C9.90047651 1.86679919 6.78817242 1.84969264 3.67529297 1.83642578 C2.70129547 1.82094193 1.72729797 1.80545807 0.7237854 1.789505 C-0.17699738 1.78927841 -1.07778015 1.78905182 -2.00585938 1.78881836 C-2.80083832 1.78215652 -3.59581726 1.77549469 -4.41488647 1.76863098 C-5.05801788 1.88768295 -5.70114929 2.00673492 -6.36376953 2.12939453 Z " fill="#E5FEFE" transform="translate(15.36376953125,286.87060546875)"/>
<path d="M0 0 C0.98937561 0.00470306 1.97875122 0.00940613 2.99810791 0.01425171 C6.15049435 0.03556633 9.30118884 0.09219585 12.453125 0.1484375 C14.58982798 0.16494589 16.72654883 0.17929363 18.86328125 0.19140625 C22.75509825 0.22537089 26.64674818 0.25991548 30.53808594 0.33056641 C31.71126373 0.34985703 31.71126373 0.34985703 32.90814209 0.36953735 C34.703125 0.5234375 34.703125 0.5234375 35.703125 1.5234375 C35.77626067 4.05393152 35.79560027 6.55648587 35.765625 9.0859375 C35.76111328 9.79685547 35.75660156 10.50777344 35.75195312 11.24023438 C35.74013364 13.00133763 35.72219763 14.76239786 35.703125 16.5234375 C29.22529441 16.57414076 22.74751499 16.60917242 16.26953125 16.63330078 C14.06573575 16.64335933 11.8619536 16.65700776 9.65820312 16.67431641 C6.49085191 16.6985709 3.32367713 16.7099221 0.15625 16.71875 C-0.82929871 16.72907257 -1.81484741 16.73939514 -2.83026123 16.75003052 C-3.7509137 16.75018158 -4.67156616 16.75033264 -5.62011719 16.75048828 C-6.83257111 16.75715012 -6.83257111 16.75715012 -8.06951904 16.76394653 C-10.57521917 16.493382 -12.16846208 15.85902523 -14.296875 14.5234375 C-15.86623094 11.38472562 -15.64888603 8.98487928 -15.296875 5.5234375 C-11.09627783 -0.50469221 -6.74555501 -0.16005992 0 0 Z M-13.296875 4.5234375 C-13.6144996 6.43350056 -13.6144996 6.43350056 -13.546875 8.5234375 C-13.55203125 9.2246875 -13.5571875 9.9259375 -13.5625 10.6484375 C-13.45393015 12.7670044 -13.45393015 12.7670044 -11.296875 14.5234375 C-5.8532706 15.65278164 -0.599631 15.58493627 4.91796875 15.40234375 C5.77370987 15.37873276 6.62945099 15.35512177 7.51112366 15.33079529 C10.22115162 15.25475068 12.93085002 15.17047496 15.640625 15.0859375 C17.48761455 15.0326574 19.33461976 14.9799175 21.18164062 14.92773438 C25.68900735 14.79921659 30.19609726 14.66332062 34.703125 14.5234375 C34.703125 10.5634375 34.703125 6.6034375 34.703125 2.5234375 C28.18865065 2.47410267 21.67428437 2.43774899 15.15966797 2.41357422 C12.94220079 2.40349925 10.72474695 2.38983891 8.50732422 2.37255859 C5.32516188 2.34837587 2.14317476 2.33696953 -1.0390625 2.328125 C-2.03493378 2.31780243 -3.03080505 2.30747986 -4.05685425 2.29684448 C-4.97765778 2.29669342 -5.8984613 2.29654236 -6.84716797 2.29638672 C-8.06628372 2.28972488 -8.06628372 2.28972488 -9.31002808 2.28292847 C-11.52900175 2.3442263 -11.52900175 2.3442263 -13.296875 4.5234375 Z " fill="#E4FEFE" transform="translate(20.296875,68.4765625)"/>
<path d="M0 0 C1.28615707 -0.00472824 1.28615707 -0.00472824 2.59829712 -0.009552 C3.98122452 -0.00651566 3.98122452 -0.00651566 5.39208984 -0.00341797 C6.33990326 -0.00437469 7.28771667 -0.00533142 8.26425171 -0.00631714 C10.26650051 -0.0069975 12.26875153 -0.00515326 14.27099609 -0.00097656 C17.3478689 0.00438554 20.42459651 -0.00093251 23.50146484 -0.00732422 C25.4441735 -0.00666364 27.38688207 -0.00538291 29.32958984 -0.00341797 C30.2555899 -0.0054422 31.18158997 -0.00746643 32.13565063 -0.009552 C32.98678436 -0.00639984 33.83791809 -0.00324768 34.71484375 0 C35.4674649 0.00079559 36.22008606 0.00159119 36.99551392 0.00241089 C38.72802734 0.12939453 38.72802734 0.12939453 39.72802734 1.12939453 C39.80116301 3.65988855 39.82050261 6.1624429 39.79052734 8.69189453 C39.78601562 9.4028125 39.78150391 10.11373047 39.77685547 10.84619141 C39.76503598 12.60729466 39.74709998 14.36835489 39.72802734 16.12939453 C33.25029874 16.23079946 26.77277473 16.3008617 20.29443359 16.34912109 C18.09057974 16.36923872 15.88677928 16.39653625 13.68310547 16.43115234 C10.51565378 16.47966287 7.34890767 16.50236189 4.18115234 16.52001953 C2.70282928 16.55098724 2.70282928 16.55098724 1.19464111 16.58258057 C-5.64248216 16.58482426 -5.64248216 16.58482426 -8.89428711 14.23217773 C-11.24096547 10.65040549 -10.74083868 8.34918875 -10.27197266 4.12939453 C-7.73097415 0.37839673 -4.29102857 0.00452646 0 0 Z M-6.27197266 2.12939453 C-6.27197266 3.44939453 -6.27197266 4.76939453 -6.27197266 6.12939453 C-7.26197266 6.12939453 -8.25197266 6.12939453 -9.27197266 6.12939453 C-9.61015427 9.69665893 -9.61015427 9.69665893 -8.03971863 12.77607727 C-5.79923508 14.49130396 -4.60189389 14.49351152 -1.80053711 14.4699707 C-0.44947624 14.46963081 -0.44947624 14.46963081 0.92887878 14.46928406 C1.897715 14.4538002 2.86655121 14.43831635 3.86474609 14.42236328 C4.85932327 14.41811844 5.85390045 14.4138736 6.87861633 14.40950012 C10.05786109 14.39269606 13.23647391 14.35504029 16.41552734 14.31689453 C18.56981507 14.30184994 20.72411272 14.28816115 22.87841797 14.27587891 C28.1618649 14.2427868 33.44483895 14.19099224 38.72802734 14.12939453 C38.72802734 10.16939453 38.72802734 6.20939453 38.72802734 2.12939453 C23.87802734 2.12939453 9.02802734 2.12939453 -6.27197266 2.12939453 Z " fill="#E4FEFE" transform="translate(16.27197265625,142.87060546875)"/>
<path d="M0 0 C1.20681097 2.89774959 1.00903639 3.97572265 -0.109375 6.98046875 C-0.65078125 8.03878906 -1.1921875 9.09710938 -1.75 10.1875 C-2.28109375 11.25355469 -2.8121875 12.31960937 -3.359375 13.41796875 C-5 16 -5 16 -8 17 C-8.27070313 17.57621094 -8.54140625 18.15242188 -8.8203125 18.74609375 C-10.49331238 21.94252068 -13.10681408 23.8486151 -15.875 26.0625 C-16.40480469 26.49626953 -16.93460937 26.93003906 -17.48046875 27.37695312 C-18.97707306 28.59688989 -20.48818283 29.79896753 -22 31 C-23.05574219 31.89525391 -23.05574219 31.89525391 -24.1328125 32.80859375 C-26 34 -26 34 -30 34 C-30 34.66 -30 35.32 -30 36 C-36.32898296 38.23437001 -42.32033977 40.25781553 -49 41 C-49.33 41.33 -49.66 41.66 -50 42 C-60.99118003 42.61699836 -71.61501048 41.92945549 -82 38 C-82 37.34 -82 36.68 -82 36 C-83.98 35.34 -85.96 34.68 -88 34 C-88 33.34 -88 32.68 -88 32 C-86.93458984 32.43119141 -86.93458984 32.43119141 -85.84765625 32.87109375 C-83.05793974 33.97703075 -80.25575498 35.03162231 -77.4375 36.0625 C-76.50808594 36.40410156 -75.57867187 36.74570312 -74.62109375 37.09765625 C-60.82461003 41.8472654 -44.21836728 39.56573325 -31.30859375 33.26953125 C-17.19942585 25.8874636 -5.71677349 15.01984586 0 0 Z " fill="#E7FEFD" transform="translate(219,243)"/>
<path d="M0 0 C1.231394 3.69418201 0.64432764 6.2056261 0 10 C-0.66 10 -1.32 10 -2 10 C-2 20.23 -2 30.46 -2 41 C1.465 40.505 1.465 40.505 5 40 C21.11292481 39.11988226 21.11292481 39.11988226 27 43 C29.72720148 46.34302117 30.36643538 48.7249206 30 53 C30.66 53 31.32 53 32 53 C32.495 57.455 32.495 57.455 33 62 C32.01 62.33 31.02 62.66 30 63 C30 64.65 30 66.3 30 68 C29.34 68 28.68 68 28 68 C28.09539063 67.154375 28.19078125 66.30875 28.2890625 65.4375 C29.50497007 54.76949563 29.50497007 54.76949563 25.625 45.0625 C22.24842509 42.85473948 18.51782907 42.83680446 14.578125 42.68359375 C13.04091797 42.62075195 13.04091797 42.62075195 11.47265625 42.55664062 C10.40917969 42.51732422 9.34570312 42.47800781 8.25 42.4375 C7.17105469 42.39431641 6.09210937 42.35113281 4.98046875 42.30664062 C2.32043572 42.20071011 -0.33968812 42.09863579 -3 42 C-3.07479497 37.46512356 -3.12890262 32.93061518 -3.16479492 28.39526367 C-3.17977543 26.85613745 -3.2001671 25.31705312 -3.22631836 23.77807617 C-3.36563699 15.36159168 -3.41278896 7.87359974 0 0 Z " fill="#E9FCFD" transform="translate(35,21)"/>
<path d="M0 0 C0.33 0 0.66 0 1 0 C1.3125 3.25 1.3125 3.25 1 7 C-1.6247347 9.73627761 -3.27103751 10.89133043 -7.04614258 11.45410156 C-8.15111084 11.4331543 -9.2560791 11.41220703 -10.39453125 11.390625 C-11.47839111 11.38063477 -12.56225098 11.37064453 -13.67895508 11.36035156 C-15.0430249 11.32393555 -16.40709473 11.28751953 -17.8125 11.25 C-24.3403125 11.12625 -24.3403125 11.12625 -31 11 C-31 24.2 -31 37.4 -31 51 C-23.41 51 -15.82 51 -8 51 C-8 51.66 -8 52.32 -8 53 C-15.92 53 -23.84 53 -32 53 C-32 38.81 -32 24.62 -32 10 C-19.3125 9.8125 -19.3125 9.8125 -15.3371582 9.79223633 C-8.45239377 9.852255 -8.45239377 9.852255 -2.71875 6.59375 C-1.18739918 4.28280239 -0.3040293 2.73626374 0 0 Z " fill="#E8FEFE" transform="translate(64,156)"/>
<path d="M0 0 C1.45076935 0.0070546 1.45076935 0.0070546 2.93084717 0.01425171 C6.01192084 0.03556293 9.09126219 0.09219036 12.171875 0.1484375 C14.26040053 0.1649463 16.34894434 0.17929394 18.4375 0.19140625 C22.24143147 0.22536786 26.04519173 0.25991247 29.84863281 0.33056641 C30.99516327 0.34985703 30.99516327 0.34985703 32.16485596 0.36953735 C33.921875 0.5234375 33.921875 0.5234375 34.921875 1.5234375 C34.99501067 4.05393152 35.01435027 6.55648587 34.984375 9.0859375 C34.97986328 9.79685547 34.97535156 10.50777344 34.97070312 11.24023438 C34.95888364 13.00133763 34.94094763 14.76239786 34.921875 16.5234375 C28.4441464 16.62484243 21.96662239 16.69490467 15.48828125 16.74316406 C13.2844274 16.76328169 11.08062693 16.79057922 8.87695312 16.82519531 C5.70950144 16.87370583 2.54275532 16.89640486 -0.625 16.9140625 C-2.10332306 16.94503021 -2.10332306 16.94503021 -3.61151123 16.97662354 C-10.41920368 16.97885757 -10.41920368 16.97885757 -13.69628906 14.71386719 C-15.76508482 11.43449696 -15.67720425 9.31760608 -15.078125 5.5234375 C-10.8667176 -0.42239627 -6.71036577 -0.16295589 0 0 Z M-9.078125 1.5234375 C-9.078125 2.1834375 -9.078125 2.8434375 -9.078125 3.5234375 C-10.068125 3.5234375 -11.058125 3.5234375 -12.078125 3.5234375 C-14.39379884 6.99694825 -14.67400077 8.43743222 -14.078125 12.5234375 C-9.61623008 16.42495631 -4.777956 15.91109964 0.81640625 15.81640625 C2.23743904 15.81003899 2.23743904 15.81003899 3.68717957 15.80354309 C6.70320447 15.78679439 9.71855316 15.74914896 12.734375 15.7109375 C14.78319345 15.69588575 16.83202241 15.6821982 18.88085938 15.66992188 C23.8947905 15.63690329 28.90821822 15.58514697 33.921875 15.5234375 C33.94873438 13.37767113 33.96820588 11.23181105 33.984375 9.0859375 C33.99597656 7.89097656 34.00757813 6.69601563 34.01953125 5.46484375 C34.26089292 2.63470409 34.26089292 2.63470409 32.921875 1.5234375 C29.81936299 1.43469615 26.7391938 1.40825295 23.63671875 1.42578125 C22.70589981 1.4271962 21.77508087 1.42861115 20.8160553 1.43006897 C17.83046309 1.43568578 14.84494471 1.4482411 11.859375 1.4609375 C9.84049587 1.46595034 7.82161557 1.47051362 5.80273438 1.47460938 C0.84241928 1.48566067 -4.11784032 1.50293655 -9.078125 1.5234375 Z " fill="#E6FDFE" transform="translate(21.078125,215.4765625)"/>
<path d="M0 0 C0.66 0.33 1.32 0.66 2 1 C1.57589844 1.37769531 1.15179688 1.75539062 0.71484375 2.14453125 C-9.11981841 11.37398343 -15.00109061 21.87358463 -15.4375 35.375 C-15.16021475 46.92855201 -11.38001608 54.35288139 -4 63 C-2.9908286 64.32640524 -1.9879479 65.65771213 -1 67 C-5.21778069 65.65963446 -7.18109449 64.03147232 -9.8125 60.5 C-10.41707031 59.7059375 -11.02164063 58.911875 -11.64453125 58.09375 C-13 56 -13 56 -13 54 C-13.99 54 -14.98 54 -16 54 C-15.95875 53.071875 -15.9175 52.14375 -15.875 51.1875 C-15.72863661 47.84190281 -15.72863661 47.84190281 -18 45 C-18.28809887 41.77090789 -17.99693399 38.54593129 -17.8125 35.3125 C-17.78091797 34.43916016 -17.74933594 33.56582031 -17.71679688 32.66601562 C-17.30105633 24.59823891 -15.36591217 18.37038789 -10.5625 11.8125 C-9.64404297 10.55373047 -9.64404297 10.55373047 -8.70703125 9.26953125 C-7.86205078 8.14611328 -7.86205078 8.14611328 -7 7 C-6.2575 6.01 -5.515 5.02 -4.75 4 C-3 2 -3 2 0 0 Z " fill="#E8FEFE" transform="translate(132,208)"/>
<path d="M0 0 C-0.33 0.66 -0.66 1.32 -1 2 C-9.58 2 -18.16 2 -27 2 C-25.751549 13.23605896 -23.8196059 22.34679209 -15 30 C-14.01 30.33 -13.02 30.66 -12 31 C-11.67 31.66 -11.34 32.32 -11 33 C-9.35857037 34.0409066 -7.69287785 35.04504326 -6 36 C-6.99 36.495 -6.99 36.495 -8 37 C-10.45146196 35.75114202 -12.69499862 34.4782074 -15 33 C-15.845625 32.46375 -16.69125 31.9275 -17.5625 31.375 C-23.57803461 25.51370987 -27.88758689 17.48665898 -28.06103516 9.02099609 C-28.05378418 7.94930176 -28.0465332 6.87760742 -28.0390625 5.7734375 C-28.03342285 4.69239746 -28.0277832 3.61135742 -28.02197266 2.49755859 C-28.01472168 1.67336426 -28.0074707 0.84916992 -28 0 C-23.89621612 -0.19660714 -19.79196562 -0.3807276 -15.6875 -0.5625 C-14.52025391 -0.61857422 -13.35300781 -0.67464844 -12.15039062 -0.73242188 C-11.03212891 -0.78076172 -9.91386719 -0.82910156 -8.76171875 -0.87890625 C-7.2142395 -0.94960327 -7.2142395 -0.94960327 -5.63549805 -1.02172852 C-3 -1 -3 -1 0 0 Z " fill="#E7FEFE" transform="translate(60,311)"/>
<path d="M0 0 C2.25 -0.3125 2.25 -0.3125 5 0 C7.71659284 2.56974999 8.91586186 4.05344589 9.25 7.8125 C9.1675 8.534375 9.085 9.25625 9 10 C9.66 10 10.32 10 11 10 C12.31385513 13.6841208 11.69552138 16.32212865 10.75 20.0625 C10.49734375 21.10535156 10.2446875 22.14820313 9.984375 23.22265625 C9.01425161 25.95979011 8.22182662 27.19632614 6 29 C5.34 28.67 4.68 28.34 4 28 C4.474375 27.4225 4.94875 26.845 5.4375 26.25 C9.31958865 20.65979235 8.40958093 13.53940174 7.375 7.125 C6.23680798 3.73892064 6.23680798 3.73892064 2.875 2.0625 C1.92625 1.711875 0.9775 1.36125 0 1 C0 0.67 0 0.34 0 0 Z " fill="#E2FDFE" transform="translate(56,209)"/>
<path d="M0 0 C0.66 0 1.32 0 2 0 C2.33 2.31 2.66 4.62 3 7 C-1.16486198 7.30017023 -3.65015727 6.45324946 -7.3125 4.5 C-8.19550781 4.0359375 -9.07851562 3.571875 -9.98828125 3.09375 C-10.65214844 2.7328125 -11.31601563 2.371875 -12 2 C-12 1.67 -12 1.34 -12 1 C-7.66831683 0.73747375 -4.1196377 1.70756464 0 3 C0 2.01 0 1.02 0 0 Z " fill="#EFF9F7" transform="translate(202,196)"/>
<path d="M0 0 C2.01822917 0.06510417 4.03645833 0.13020833 6.0546875 0.1953125 C6.0546875 0.8553125 6.0546875 1.5153125 6.0546875 2.1953125 C4.9409375 2.3190625 3.8271875 2.4428125 2.6796875 2.5703125 C-0.97634927 2.8418938 -0.97634927 2.8418938 -2.9453125 5.1953125 C-3.34578694 7.51806427 -3.6850229 9.85270607 -3.9453125 12.1953125 C-4.9353125 11.2053125 -5.9253125 10.2153125 -6.9453125 9.1953125 C-3.33551101 0.33489066 -3.33551101 0.33489066 0 0 Z " fill="#EBFDFE" transform="translate(209.9453125,36.8046875)"/>
<path d="M0 0 C6.57714754 2.12790067 10.94758414 6.54482481 15 12 C14.67 12.66 14.34 13.32 14 14 C11.66267107 11.85848453 9.33082607 9.71108967 7 7.5625 C6.33226562 6.95083984 5.66453125 6.33917969 4.9765625 5.70898438 C4.34492188 5.12568359 3.71328125 4.54238281 3.0625 3.94140625 C2.47597656 3.40201416 1.88945312 2.86262207 1.28515625 2.30688477 C0 1 0 1 0 0 Z " fill="#E8FEFE" transform="translate(232,59)"/>
<path d="M0 0 C2.99324263 1.0975223 3.84610901 1.67682892 5.25 4.625 C5.4975 5.40875 5.745 6.1925 6 7 C6.99 7 7.98 7 9 7 C9.33 8.65 9.66 10.3 10 12 C10.66 12 11.32 12 12 12 C12.33 13.32 12.66 14.64 13 16 C2.82973761 6.12886297 2.82973761 6.12886297 0 0 Z " fill="#E6FCFD" transform="translate(219,43)"/>
<path d="M0 0 C0.66 0.33 1.32 0.66 2 1 C2 5.29 2 9.58 2 14 C1.01 14.495 1.01 14.495 0 15 C-1 9.25 -1 9.25 -1 7 C-1.66 6.34 -2.32 5.68 -3 5 C-2.34 4.67 -1.68 4.34 -1 4 C-0.34786708 1.97536745 -0.34786708 1.97536745 0 0 Z " fill="#F9FCFA" transform="translate(204,49)"/>
<path d="M0 0 C-9 4.5 -9 4.5 -18 9 C-15.78071806 6.09197539 -14.07030857 4.04687238 -11 2 C-10.01 2 -9.02 2 -8 2 C-8 1.34 -8 0.68 -8 0 C-4.71303767 -0.79953138 -3.28976808 -1.09658936 0 0 Z " fill="#EAFEFE" transform="translate(152,199)"/>
<path d="M0 0 C4.21912747 0.4794463 6.79663178 1.16625119 10 4 C5.74357648 4.3648363 3.46444495 3.47460354 0 1 C0 0.67 0 0.34 0 0 Z " fill="#E7FEFD" transform="translate(326,5)"/>
</svg>
